<svg width="540" height="399" xmlns="http://www.w3.org/2000/svg">
 <!-- Created with Method Draw - http://github.com/duopixel/Method-Draw/ -->
 <g>
  <title>background</title>
  <rect fill="#000000" id="canvas_background" height="25" width="34" y="-1" x="-1"/>
  <g display="none" overflow="visible" y="0" x="0" height="100%" width="100%" id="canvasGrid">
   <rect fill="url(#gridpattern)" stroke-width="0" y="0" x="0" height="100%" width="100%"/>
  </g>
 </g>
 <g>
  <title>Layer 1</title>
  <path stroke="#000" id="svg_4" d="m536.730184,123.797416c-0.079145,-38.911435 -35.456825,-70.438861 -79.124912,-70.49173l0,-0.017623l-242.519141,0c-9.992018,-28.584397 -39.789997,-49.485195 -75.286394,-49.538063l-56.885252,0c-43.687873,0.035246 -79.08534,31.580295 -79.164484,70.49173l0,250.034167c0.079145,38.876189 35.476611,70.403615 79.164484,70.474107l374.710574,0c43.628515,-0.070492 79.045767,-31.597918 79.124912,-70.474107l0,-200.478481l-0.019786,0zm-453.815699,-84.819174l56.885252,0c20.696339,-0.070492 37.930097,14.697526 39.235984,33.060621l1.147598,16.512688l277.44174,0c21.626289,0.035246 39.512991,15.966377 39.552563,35.245865l0,8.723352c-11.693629,-6.079912 -25.088869,-9.815973 -39.572349,-9.833596l-374.710574,0c-14.48348,0.017623 -27.898506,3.771308 -39.572349,9.851219l0,-58.314284c0.059359,-19.279488 17.94606,-35.210619 39.592135,-35.245865zm374.690787,320.525897l-374.690787,0c-21.626289,-0.035246 -39.512991,-16.001623 -39.592135,-35.245865l0,-131.079372l0.019786,0c0.039572,-19.297111 17.926274,-35.228242 39.572349,-35.263488l374.710574,0c21.626289,0.035246 39.394274,15.878262 39.572349,35.087259l0,131.237979c-0.079145,19.297111 -17.965846,35.228242 -39.592135,35.263488z" stroke-opacity="null" stroke-width="7.5" fill="#ffffff"/>
 </g>
</svg>